<?xml version="1.0" encoding="utf-8"?>
<!-- Generator: Adobe Illustrator 18.0.0, SVG Export Plug-In . SVG Version: 6.00 Build 0)  -->
<!DOCTYPE svg PUBLIC "-//W3C//DTD SVG 1.1//EN" "http://www.w3.org/Graphics/SVG/1.1/DTD/svg11.dtd">
<svg version="1.1" id="Layer_1" xmlns="http://www.w3.org/2000/svg" xmlns:xlink="http://www.w3.org/1999/xlink" x="0px" y="0px"
	 viewBox="-0.1 195.3 959.8 266.1" enable-background="new -0.1 195.3 959.8 266.1" xml:space="preserve">
<g id="Background">
</g>
<g id="Objects">
	<path fill="#465A22" d="M316.5,459.2c3.9,0.1,7.9,0.1,11.7,0.1c14.1-0.4,26.4-2.1,28-5.1c0.7-1.3-1.5-3.2-7.9-5.4
		c-0.8-0.3-1.5-0.6-2.3-0.8c-20.9-7.6-41.9-18.6-56.6-29.5c-14.9-11.1-23.5-22.2-19.7-29.9c0.1-0.1,0.1-0.2,0.1-0.3
		c0.4-0.7,0.8-1.4,1.3-2c4-5.2,11.1-7.8,19.6-8.2l0,0c5.5-0.3,11.6,0.4,17.9,1.8l0.2-1.3c0.3-1.5,2.8-2,5.6-1.3l7.9,2.2l1.4,0.4
		l1.8,0.5l12.2,3.3c2,0.6,3.4,1.8,3.2,2.8l0,0c-0.2,1-2,1.4-3.9,0.8l-12.2-3.3l-0.5,2.8l12.2,3.3c2,0.6,3.4,1.8,3.2,2.8l0,0
		c-0.2,1-2,1.4-3.9,0.8l-12.2-3.3l0,0l-11.1-3c-2.8-0.8-4.9-2.6-4.6-4l0.4-2c-5.6-1.3-11.1-1.8-16-1.6l0,0c-7.7,0.4-14.3,2.8-18,7.6
		c-0.5,0.6-0.8,1.2-1.3,1.9c-0.1,0.1-0.1,0.2-0.1,0.3c-3.6,7,4.6,17.5,18.8,28c14.3,10.7,34.7,21.4,55.1,28.7
		c0.8,0.3,1.5,0.6,2.2,0.8c8.7,3.1,11.6,5.8,10.4,8.1c-1.8,3.5-14.8,5.6-29.8,5.9c-4.3,0.1-8.7,0.1-13.1-0.1L316.5,459.2
		L316.5,459.2z M551.7,411.6l-10.1-6.5c-3-1.9-3.4-4.4-1.1-5.4l3.4-1.5l0,0l2-0.9c5-2.2,11.6-1.1,16.7,1.3c5.8-3.1,14.3-4.6,24.1-4
		c9.7,0.6,20.7,3.1,31.6,8.1c2,0.9,3.7,1.8,5.3,2.8c7.8,4.9,11.4,11.1,11.5,17.5c0.1,6.3-3.1,12.7-8.9,18.3
		c-3.8,3.8-8.8,7.2-14.6,10c-3.2,1.5-3.8,2.7-2.4,3.6c4.2,2.7,20.1,4.2,35.8,4.4c1,0,2,0,2.9,0v1.9c-0.6,0-1.1,0-1.7,0
		c-16.7-0.2-33.9-2.1-39.1-5.3c-3-1.9-2.9-4,1.8-6.2c5.7-2.7,10.5-6,14.2-9.7c5.6-5.5,8.6-11.7,8.6-17.6
		c-0.1-5.8-3.3-11.4-10.3-15.8c-1.4-0.8-3-1.7-4.6-2.5c-10.1-4.6-20.2-7-29.2-7.5c-9.1-0.5-16.9,0.8-22.3,3.7
		c4.9,3.3,7,7.9,1.5,10.5l-4.6,2.1l-0.8,0.4C559,414.2,554.7,413.5,551.7,411.6z"/>
	<path fill="#465A22" d="M366.9,392.7c-2-0.8-3.9-1.5-5.8-2.2c-0.4,0.1-0.2,0.5,0.8,1.5c4.1,4.1-14.4-4.7-22.8-10
		c-1.8-1.1-3.6-2.2-5.2-3.2c-2.2-1.1-4.2-2-6.1-3.1c-2.5-0.9-3.8-0.8-3.2,1.1c1.4,4.1-12.7-8.4-17.6-13.5c-2.1-2.2-3.4-4.6-4.4-6.5
		c-0.5-0.7-0.9-1.3-1.3-2c-0.8-1.1-1.8-1.2-3.2,0.3c-3.6,3.7-4.6-8.8-1.3-10.3c1.3-0.6,2.8-1.9,3.7-3.2c0.3-0.6,0.6-1.1,0.9-1.6
		c0.3-1.1-0.4-1.8-3.1-1c-6.3,1.8,6.1-5.3,5.5-7c-0.1-0.1-0.1-0.2-0.3-0.4c-0.6-0.2-1.2-0.3-1.9-0.4c-3-0.1-8.6,1.3-12.8,4
		c-5.9,3.7-7,3.5-7.7,1.4c-0.7-2-3.2-0.4-4,6c-0.8,6.3-8.9,3.5-8.8,0.6c0.1-2.9-2.6-0.6-2.7,5.6c-0.1,6.1-3.9,4.5-6.1,1.6
		c-2.2-2.9-2,2,3.7,7.4c5.7,5.3,9.1,7,2.2,5.1c-6.8-1.8,5,3.7,18.2,7.4c4.5,1.3,5.6,2,4.6,2.3c5.9,2,10.8,4.5,12.3,5.5
		c4.3,2.9-0.8,3.2-5,0.7c-7.9-4.7-12.7-1.3-5.1,0.5c8.6,2.1,10.6,5.9,0.8,3.6c-4.1-1.3-7.7-0.1-3.2,0.8c4.8,1.1,2.8,4.1-4.8,1.8
		c-6.6-2.1-3.7-0.4-2,0.4c5.3,2.1,0.9,3.3-7.4-0.6c-4.3-2-8.3-4-12.1-6.2c0,0.7,0.1,1.5,0.1,2.2c0.6,4.1-12.9-6.3-16-10
		c-3.2-3.7-8.6-10.3-12.2-7c-3.7,3.3-8.3-11.5-6.2-14.5c0.4-0.6,1.1-1.5,1.8-2.2c0.4-1.8,1.3-3.5,2.6-5.1c-0.4-0.6-1.6-1-4.1-0.8
		c-8.8,0.6,7.8-6.5,16.9-8.4c1.2-0.2,2.4-0.5,3.6-0.8c3-1.1,6.3-2.2,10-3.2c0.4-0.6-1.5-0.8-7.4-0.6c-15.7,0.8,11.5-4.3,21.4-4.3
		c10,0,30.6-1.6,17.7-3.3c-8.4-1.1,10.3-1.1,29.5-0.8c1.3-0.8,8.8-1.7,17.9-1c4.8,0.4,8.3,1,10,1.6c4.4-0.1,8.6,0,12.7,0.1
		c6.4-0.6,14.6,0.1,18.5,0.8c8.3,0.5,15.7,0.9,22,0.7c13.6-0.4,27.5,2.5,13.6,3.3c-0.6,0-1.1,0.1-1.5,0.1c2.9,0.4,5.8,0.7,8.6,1.1
		c8.1,0.3,18.8,0.6,24.5,0.6c12,0.2,13.9,2.5,9.8,3.5c-4.1,1.1,14.9,1.4,26.7,2.9c11.7,1.4,7.2,2.9,1.1,2.7
		c-6.2-0.2,14.4,4.3,29.1,6c14.8,1.6,10,3.3,6.3,3.3s6.5,2.7,20,5.1c13.5,2.5,10.8,4.3,5.7,3.5c-5.1-0.8,5.8,2.5,20.5,6.3
		c14.8,3.9,10.5,6,4.8,4.3c-5.6-1.6,2.2,1.4,15.5,6.3c13.4,4.9,10.4,6.5,3,3.9c-7.4-2.6,3.3,2.7,13,7.6c7.9,4,7.2,5.1,0.6,3
		c3.2,2.7,5.5,5,7.2,7c3.2,3.7-1.1,4.6-3.8,1.8c-1.1-1.1-3-1.7-1.3,0.1c1.8,1.9,0.8,2-1,2.2c-2.5,0.1-5.3-0.6-8.6-2.3
		c-6.2-3.2,1.3,3.5-8.4,0.8c-4.4-1.2-4.6-3.2-5.6-4.6c-1.1-1.5-6.4-4.8-8.9-1.9c-1,1.1,5.6,3.8,1.4,4.1c-7.5,0.5-10.1-4.9-8.9-7.9
		c0.6-1.3,1-2.2,1.3-3c-3.6,0.4-5.8-1.3-4.4-3.1c1.8-2.2-1.3-8-4.1-6c-2.9,2-5.2-1.6-8.6-5.6c-3.4-3.9-20.2-10.5-16.7-8
		c3.5,2.5-4.3,0.2-11.1-3.5c-6.8-3.7-18.8-8.2-15.4-5.1c3.4,3.1-11.9-4.5-20.5-7.8c-8.6-3.3-18.6-5.6-13.3-2.7
		c5.3,2.9-13.6-3.3-21.2-5.8c-7.6-2.5-16.9-4.1-21.1-3.5c-4.2,0.6,6.1,5.3,21.6,9.8c15.5,4.5,16.6,5.3,8.7,4.1
		c-7.9-1.3,2.1,2.5,13.3,6.3c11.2,3.9,29.2,10,17.1,6.5c-12-3.5-5.1,1.1,9.1,6c14.3,4.9,6.5,6,1.4,4.1c-0.6-0.2-1.1-0.4-1.3-0.4
		c1.5,1.1,2.9,2.2,4.1,3.3c2.7,1.8,6.5,4,10.4,6.3c9.8,5.8,4.7,8.6,0.2,4.9c-4.6-3.7-0.5,1.4,5.1,7.8c5.6,6.3,0.7,7.2-2.4,4.3
		c-1.6-1.5-3-2-3.4-1.3c-0.1,0.2-0.1,0.4-0.2,0.6c-0.1,0.9,0.3,2.5,1.4,4.8c2.9,6.3-2.5,5.3-3.9,3.1c-1.4-2.2-1.8,0.4-2.5,3.1
		c-0.8,2.7-2.5,4.9-5.3,3.1c-2.7-1.8,0.8,2.5,9.2,4.5c3.9,0.9,4.1,1.5,2.6,1.8c6.2,1.1,12.8,2.3,16.9,4.1c7.1-2,7.9-2.2,8.2,1.1
		c5.2,1.3,9.6,5.5,3.8,5.3c1.3,3.2-0.4,5.3-7,4.4c-11.6-1.6-20.7-3.1-29.6-2.8c-7.1,0.2-19.5-7.4-20.5-11.5
		c-0.1-0.4-0.1-0.8-0.1-1.3c-0.5,0.1-1,0.1-1.5,0.2c-7.4,1.1-7.7-3.3-2.3-4.1c2.8-0.4,4.7-2.1,5.1-3.4v-0.1
		c-0.1-0.3-0.1-0.6-0.1-0.9c-0.4-0.5-1.4-0.6-3.2-0.1c-5.7,1.6,1.6-6.7-0.9-5.6c-2.5,1.2-25.9,1.4-37.2,1.4c-11.3,0-38-2.5-29.1-0.4
		c8.9,2,3.7,2.2-3.8,0.6c-7.4-1.6,0.6,1.2,12.1,4.3c11.5,3.1,8.4,3.5,0.5,1.8c-0.7-0.1-1.3-0.3-1.7-0.4c2,0.7,3.9,1.4,5.9,2.1
		c3.7,1.1,8.4,2.5,13.7,3.9c6.7,2,6.2,2.6,2.8,2.8c5.9,3.7,5,7.6-4.6,7.4c-6-0.1-11.6,2-11,4.1c1.8,5.5-15.5,3.6-17.9,0.2
		c-6,1.1-9.8,0-11-2.5c-10.5,0.8-17.5-8.4,1.1-6.7c0.7-1.3,4.6-3.7-0.8-3.2c-5.5,0.5,1.4-3.3,10.5-3.3s-0.8-1.4-3.4-3.5
		c-2.5-2-17.1-7.6-13.1-3.7c3.9,3.9-11-3.1-19.5-7.4C373.2,395.8,369.7,394.1,366.9,392.7z"/>
	<path fill="#FFFFFF" d="M192.1,456c8.8,0.5,18,0,25.7-1.4c7.5-1.3,13.4-3.4,15.8-6.1c1.5-1.7,1.2-3.8-1.7-6.3
		c-4.5-3.9-4.6-7.5-2-10.6c3.9-4.5,15.3-7.2,27.3-7.7c11.8-0.5,24.4,1.1,30.9,5.3c5,3.3,6.7,7.9,2.7,14.2c-2.4,3.7-1.3,6.5,2.1,8.8
		c7,4.6,22.2,6.5,36.8,5.9c14.3-0.5,27.8-3.4,31.3-8.2c1.6-2.2,0.6-5.1-4.4-8.6c-0.6-0.4-1.2-0.8-1.8-1.3
		c-16-12.2-29.7-29.7-37.2-47.2c-7.7-17.7-9-35.5,0-47.8c0.1-0.1,0.2-0.4,0.4-0.5c0.8-1.1,1.8-2.2,2.7-3.2
		c7.4-8.4,16.2-12.5,25-13.2l0,0c8.8-0.7,17.5,2.1,24.8,7.7c0.9,0.7,1.8,1.4,2.6,2.2l-2,2.3c-0.8-0.7-1.6-1.4-2.4-2
		c-6.7-5.1-14.8-7.7-22.8-7.1l0,0c-8,0.6-16.1,4.5-23,12.2c-0.8,1-1.7,2-2.5,3c-0.1,0.1-0.2,0.3-0.4,0.4c-8.2,11.2-6.8,28,0.4,44.8
		c7.3,17.1,20.7,34.2,36.2,46c0.6,0.4,1.1,0.8,1.7,1.3c6.7,4.9,7.8,9.3,5.1,12.9c-4.1,5.6-18.5,8.9-33.7,9.4
		c-15,0.6-31-1.5-38.5-6.4c-4.9-3.2-6.5-7.5-3-13c2.9-4.4,1.7-7.7-1.8-9.9c-5.9-3.9-17.8-5.3-29.1-4.8c-11.2,0.5-21.7,2.9-25.1,6.7
		c-1.4,1.6-1.1,3.7,1.8,6.3c4.4,3.9,4.6,7.5,1.9,10.6c-2.9,3.2-9.4,5.7-17.6,7.1c-7.9,1.4-17.4,2-26.4,1.5c-12.9-0.7-23.9-1.8-37-2
		c-8,0-147.1,0.8-155,0.4v-3.5c7.5,0.2,144.2-0.2,156.7-0.2C169.8,454.1,179.3,455.3,192.1,456L192.1,456z M786.7,461.2
		c-9.8,0.1-21.2-1.6-30.1-2.8c-9.2-1.3-16.4-3.6-18.6-6.7c-1.8-2.5-1.1-5.2,3-8c2.2-1.6,2.9-2.8,2.2-3.7c-2.5-3.4-14.1-5.6-26.5-6
		c-12.5-0.4-25.4,1.2-30.2,5.1c-1.8,1.5-2,3.5,0.1,6.1c3.1,3.7,2.5,6.9-0.6,9.4c-6,4.9-23.2,7-39.6,6.7c-16.6-0.4-32.5-3.3-35.6-8.6
		c-1.8-3-0.3-6.3,5.9-9.9c7.4-4.4,14.5-9.6,20.6-15.5c9.1-8.8,16.4-18.7,20.2-28.2c3.7-9.3,4.2-18.3,0.1-25.2
		c-0.8-1.4-1.8-2.7-3-3.9c-7-7.4-15.7-11.2-24.3-12c-9.5-0.9-19,1.8-26.6,7.2l-1.8-2.5c8.2-5.8,18.4-8.6,28.6-7.7
		c9.3,0.9,18.6,5,26.2,12.9c1.3,1.4,2.5,3,3.4,4.6c4.6,7.9,4.1,17.8,0,27.9c-4,10-11.5,20.2-20.9,29.3c-6.3,6-13.5,11.5-21.2,16
		c-4.3,2.5-5.6,4.4-4.8,5.7c2.5,4.3,17.3,6.7,33,7c15.8,0.4,32.3-1.5,37.6-6c1.6-1.3,1.9-3,0.1-5.1c-3.5-4.3-3-7.7,0.4-10.4
		c5.3-4.4,19.1-6.2,32.2-5.8c13.2,0.4,25.9,3,29,7.2c1.8,2.5,1.1,5.2-3,8c-2.2,1.6-2.8,2.8-2.2,3.7c1.7,2.5,8.2,4.4,16.6,5.5
		c8.7,1.2,19.8,2.7,29.5,3c10.7,0,26.6-0.3,35.8-0.3c6.8-0.1,134.2-0.1,137.5-0.5v2.7c-4.3,0.4-132.4,0.7-137.4,0.7
		C812.2,461.2,798.5,461.4,786.7,461.2z"/>
	<path fill="#F9A818" d="M420.8,379.4c-20.7-27.1-34.3-52.7-36.6-76.3c-2.7-27.5,10-50.2,27.2-68.2c33.9-35.3-69.4,9.7-73,51.9
		c-0.7,8.3,4.6,17.6,11.2,24.5c4.8,5,7.4,12.2,7.8,14.9c0.7,6.3-4.8,7.1-5.8,1.6c-2-10.4-11-3-5.7,1.1c6,4.6,3.4,13-3.6,7.9
		c-2.5-2.9-7.5-0.3-4.2,2c3.5,2.3-2.4,9.3-7,3.9c-4-4.6-3.4-0.7-2.5,0.8c2.7,4.7-3.1,7.2-6.7-1.3c-5.6-13.3-7.7-28.8-8.8-43.2
		c-4.6-64.3,87.6-105.8,170.9-98.2c67.6,6.1,129.7,40.6,152.4,88.8c14.5,31.1,13.8,54.4,11.2,69.9c-1.3,8.1-6.8,10.2-6,4
		c0.3-2.5-1-3.7-1.5,0.2c-0.6,4.1-1.8,4.6-3.7,4.8c-2.7,0.4-4.5-1.4-5.7-5.1c-2.2-7.1-3,7.7-9.4,2c-2.9-2.7-0.6-7.2,0.1-10.2
		c0.9-3.4-0.4-10.8-6.6-4.2c-2.4,2.5,1,8.4-3.7,9.1c-8.2,1.1-4-11,0.8-17.5c7-9.5,8.2-9.6,10.2-21.3c9.5-56.9-119.6-145.7-71.2-70.1
		c11.5,18,23,50.1,14.6,77.8c-9.2,30.3-22.1,42.2-43.9,62.5l0,0c-3.4,3.2-2.1,11,1.8,13.2c5.4,3.1,12.7,5.9,15,10.9
		c9.5-4.4,16.1,0.8,12.2,8.3c3.6,2.9,3,12.1-2.7,11.7c-2.7,7.2-12.2,5.9-17.7,3.8c-9.6-3.7-12.7-13.6-21.9-13
		c-7.3,0.4-14.7-9.5-10.6-18.5c2.1-4.7,9.6-14.9,11.9-19.2c14.8-30.5,14.9-42.6-31.1-43.3c-46-0.7-49.1,15.3-37.7,38.7
		c3.9,7.3,11.5,15.5,14.5,22.2c4.2,9.3-1.5,20.8-12.7,20.5c-6-0.1-14.1,4.4-16,8.9c-5,12.2-19.9,7.9-18.2,0.6
		c-7.4,2.4-11.4-1.5-9.5-7.3c-12.2,1.9-6.7-20.7,12.2-14.3c-0.4-4.1,12.6-13.8,20-13.5C439.4,401.1,423.6,383.1,420.8,379.4z"/>
	<path fill="#FAE2B9" d="M610.8,359.7c-3.1,0.4-4.4-1.1-4.6-3.5c0.1,0,0.3,0,0.4,0C608.7,356.2,610.4,357.7,610.8,359.7z"/>
	<path fill="#FAE2B9" d="M357.3,327c0.1,2.7-1.1,4.1-2.4,4.4c-0.1-0.4-0.2-0.8-0.2-1.2C354.7,328.6,355.8,327.2,357.3,327z"/>
	<path fill="#F9A818" d="M474.3,199.4c-17.7-1.3-68-3.2-57.1,0.4c10.9,3.7-11.8,7.2-21.8,7.2c-10,0-43.6,11.3-26.8,9.6
		c16.8-1.8-0.4,5.9-11.8,10c-11.3,4.1-36.8,20-27.2,18.6c9.6-1.3-4.6,11.3-10.4,18.1c-5.9,6.8-19.5,39.4-11.8,32.2
		c7.7-7.2,5,7.2,3.7,15.4c-1.3,8.2-0.9,31.3,3.7,22.2c4.6-9.1,10-18.6,19.5-18.6s24.5,2.2,15.9-5.9c-8.6-8.2-13.6-20.4-9.1-16.3
		c4.6,4.1,3.2,0.4,4.1-11.3c0.9-11.8,6.8-22.7,5.4-16.3c-1.3,6.3,0.4,10,8.2-3.7c7.7-13.6,13.1-18.6,9.6-12.2
		c-3.7,6.3,0.9,12.7,9.6-1.3c8.6-14.1,13.1-17.7,11.3-13.1c-1.8,4.6-0.9,5,9.6-3.2c10.4-8.2,20.4-10.9,19-7.2
		c-1.3,3.7-22.7,19.5-14.1,15.4s-3.7,9.6-8.6,12.7c-5,3.2-19.5,30.9-11.3,22.7c8.2-8.2,0,6.8-1.3,18.1c-1.3,11.3-2.7,39,0.9,29.9
		s6.3-0.4,8.2,11.3c1.8,11.8,9.6,31.3,10.4,22.2c0.9-9.1,4.6,2.7,7.7,12.2c3.2,9.6,9.6,24.9,10.4,16.3c0.9-8.6,8.6,3.7,8.6,8.2
		c0,4.6,8.2,7.7-0.9,7.7s-21.8,8.6-14.5,7.2c7.2-1.3-11.8,6.8-2.7,8.2c9.1,1.3,20-7.2,29-7.2c9.1,0,27.2,4.1,17.7-5.4
		c-9.6-9.6-16.8-16.3-10.9-12.7c5.9,3.7,9.6,2.7,1.8-4.1c-7.7-6.8-12.2-13.1-6.8-9.6c5.4,3.7,10.9,3.2,4.6-1.3
		c-6.3-4.6,17.2,0.9,28.6,0.9c11.3,0,34.9-0.4,39-3.2c4.1-2.7-13.6,15.9-5.9,12.2c7.7-3.7-0.9,8.2-7.2,10s-11.3,11.3-2.7,9.1
		s14.5-4.6,20-0.9c5.4,3.7,14.5,2.7,8.6-1.8c-5.9-4.6-4.1-14.1-3.7-10c0.4,4.1,5-0.9,9.1-6.8c4.1-5.9,7.7-11.8,6.3-6.8
		c-1.3,5,2.7,7.2,7.7-6.8c5-14,7.7-15.4,7.2-9.1c-0.4,6.3,5.4,4.6,7.7-9.6c2.2-14.1,4.6-25.4,4.6-17.2c0,8.2,8.6,1.8,5.9-10.9
		c-2.7-12.7-4.6-24.5-1.8-20.4c2.7,4.1,11.8,1.8,3.7-9.1c-8.2-10.9-9.6-20.9-1.8-13.1c7.7,7.7-2.7-5.9-9.1-14.5
		c-6.3-8.6-11.8-16.8-5.4-14.1c6.3,2.7,6.3,0.9-3.7-9.1c-10-10-14.5-20.4-9.6-21.8c5-1.3,12.2,2.2,16.8,7.7
		c4.6,5.4,15.9,19,14.1,12.7c-1.8-6.3,5.4-1.3,10,5.9c4.6,7.2,10.4,24,10.9,17.2c0.4-6.8,6.8,3.2,9.1,11.3c2.2,8.2,7.2,13.1,6.8,7.7
		c-0.4-5.4,8.2,9.1,6.8,17.7c-1.3,8.6-3.7,16.8,1.8,12.2c5.4-4.6,1.3,8.2-3.2,13.1c-4.6,5-3.2,9.6,4.1,5.4c7.2-4.1,19.5-5,25.4,5
		s10,8.6,6.3-2.2c-3.7-10.9-7.7-22.7-3.7-16.8c4.1,5.9,9.1,2.2,1.8-8.6c-7.2-10.9-11.3-17.7-7.7-14.1c3.7,3.7,10.4-0.9,0.4-9.6
		c-10-8.6-16.8-15.9-12.7-14.1s9.1-2.2-1.3-7.7c-10.4-5.4-17.2-11.3-13.6-11.3c3.7,0,10.4-3.7-2.2-7.2
		c-12.7-3.7-27.7-13.6-21.8-13.1c5.9,0.4,12.2-2.7,2.2-5.9s-28.6-4.1-23.1-6.3c5.4-2.2,6.3-7.2-5.4-7.7c-11.8-0.4-44.4-2.2-29.4-4.1
		c15-1.8,4.6-8.2-9.6-7.2C511.8,204,495.5,198.5,474.3,199.4z"/>
	<circle fill="#DE9414" cx="497.8" cy="243.2" r="32.5"/>
	<circle fill="#DE9414" cx="444.9" cy="243.5" r="27.3"/>
	<path fill="#FFFFFF" d="M447.9,218.6c11.9,1.6,20.1,12.6,18.5,24.5c-1.6,11.9-12.6,20.1-24.5,18.5c-11.9-1.6-20.1-12.6-18.5-24.5
		C425.1,225.2,436.1,217,447.9,218.6z"/>
	<g>
		<path d="M457.8,225.5c4.4,0.6,7.4,4.6,6.7,8.9c-0.6,4.4-4.6,7.4-8.9,6.7c-4.4-0.6-7.4-4.6-6.7-8.9
			C449.4,227.9,453.4,224.8,457.8,225.5z"/>
		<circle fill="#FFFFFF" cx="461.3" cy="237.5" r="2.6"/>
	</g>
	<path fill="#FFFFFF" d="M501.5,213.3c14.6,2,24.9,15.6,22.8,30.2c-2,14.6-15.6,24.9-30.2,22.8c-14.6-2-24.9-15.6-22.8-30.2
		C473.4,221.5,486.9,211.3,501.5,213.3z"/>
	<g>
		<path d="M512.1,223.4c5.3,0.8,9.1,5.7,8.4,11c-0.8,5.3-5.7,9.1-11,8.4c-5.3-0.8-9.1-5.7-8.4-11
			C501.8,226.3,506.7,222.6,512.1,223.4z"/>
		<circle fill="#FFFFFF" cx="516.4" cy="238.3" r="3.2"/>
	</g>
	<path fill="#F9A818" d="M478.9,377c46.9,0,85.1-22.6,85.1-50.2c0-27.7-38.2-50.2-85.1-50.2s-85.1,22.6-85.1,50.2
		C393.8,354.4,432.1,377,478.9,377z"/>
	<path fill="#FFFFFF" d="M487.3,199.6c11.2-2,23.3,3,17.4,4.2s3.6,2,11.8,2.5c8.2,0.5,11.1,5.1,4.8,5c-6.3-0.1,4.2,1.4,8.1,5.7
		c3.9,4.4,5.5,7-1.3,3.2c-6.8-3.8-29-13.6-40.8-13.8C475.4,206.3,476.1,201.6,487.3,199.6z"/>
	<path fill="#FFFFFF" d="M466.8,195.8c-11.7-2.2-24.2,2.7-18.1,4.1c6.1,1.3-3.7,2-12.3,2.4c-8.5,0.4-11.6,5.1-5.1,5.1
		s-4.4,1.4-8.5,5.8c-4.1,4.4-5.8,7.2,1.3,3.4c7.2-3.8,29.2-12.7,41.5-12.7C477.8,204,478.5,198.1,466.8,195.8z"/>
	<path fill="#8C5D0D" d="M474.9,317.6c4.5,0,8.2-5.8,8.2-13.1c0-7.2-3.7-13.1-8.2-13.1c-4.5,0-8.2,5.8-8.2,13.1
		S470.4,317.6,474.9,317.6z"/>
	<path fill="none" stroke="#FFFFFF" stroke-width="6.2399" stroke-miterlimit="22.9256" d="M617.6,357.1c-5.3,1.2-10.4,3.4-14.8,6.6
		"/>
	<path fill="none" stroke="#FFFFFF" stroke-width="7.2" stroke-miterlimit="22.9256" d="M349.4,329.5c8.2,0.3,16.1,3.7,22.6,9.6"/>
	<path fill="#F9A818" d="M468.3,229.9c-34.9-1.5-53.5,12.8-57.8,19C412.7,220.3,451.6,189.8,468.3,229.9z"/>
	<path fill="#F9A818" d="M466.9,225c34.9-1.5,66.1,13,70.3,19.2C532.5,214.2,495.7,189.2,466.9,225z"/>
	<path fill="#FAE2B9" d="M397,417.3c1.9,0,3.2,1.9,2.8,4.2c-0.4,2.3-2.1,4.2-4,4.2c-1.9,0-3.2-1.9-2.8-4.2
		C393.3,419.2,395.2,417.3,397,417.3z"/>
	<path fill="#FAE2B9" d="M405.6,424.6c2,0.6,2.9,3,1.8,5.5c-1.1,2.5-3.6,4-5.6,3.4c-2-0.6-2.9-3-1.8-5.5
		C401,425.5,403.5,424,405.6,424.6z"/>
	<path fill="#FAE2B9" d="M418.2,430.3c3.1,0.6,4.7,3,3.7,5.5c-1.1,2.5-4.4,4-7.5,3.4c-3.1-0.6-4.7-3-3.7-5.5
		C411.8,431.3,415.1,429.8,418.2,430.3z"/>
	<path fill="#FAE2B9" d="M546.4,414.4c-1.9,0-3.2,1.9-2.8,4.2c0.4,2.3,2.1,4.2,4,4.2c1.9,0,3.2-1.9,2.8-4.2
		C550,416.3,548.2,414.4,546.4,414.4z"/>
	<path fill="#FAE2B9" d="M545.1,424.1c-2,0.6-2.9,3-1.8,5.5c1.1,2.5,3.6,4,5.6,3.4c2-0.6,2.9-3,1.8-5.5
		C549.8,425.1,547.2,423.6,545.1,424.1z"/>
	<path fill="#FAE2B9" d="M536.8,429.8c-3.1,0.6-4.7,3-3.7,5.5c1.1,2.5,4.4,4,7.5,3.4c3.1-0.6,4.7-3,3.7-5.5
		C543.2,430.8,539.8,429.3,536.8,429.8z"/>
	<g>
		<path fill="#AB720F" d="M621.7,294.2v-1.5l0,0l0,0v-0.6c0.9-4.1-2-15.1,7.4-9.1c5.3,3.4-1.4-5.7-2-6.5c2.2,1.5,3.4,3,4.5,5.6
			c2,5.1-4.2,1.1-4.8,0.8C620.2,279.8,625,294.7,621.7,294.2L621.7,294.2z M641.7,321.2c1.2,2.2,8.2,16.7,5,19
			c-2.9,2.1-4.8-11-10.3-4.5c-2.5,3-9.1,7.9-13.3,6.3c-5-1.9,11.6-14.9,6.1-17c-0.8-0.3-1.9-0.1-2.7-0.1c0.9-0.3,1.5-0.6,2.5-0.4
			c7,0.9-7.1,15.7-5.4,16.3c3.5,1.2,9.6-3.7,11.7-6.1c5.9-6.8,8.2,2.7,10.8,4.4C647.5,337.1,642.5,323.4,641.7,321.2z M621.7,292.1
			v0.6l0,0l0,0v1.5c-0.2,0-0.4-0.1-0.6-0.2c-3.8-2-5.9-15.7-6-19.5c0.4,2.4,4.1,17.1,6.4,18.3C621.5,292.5,621.6,292.3,621.7,292.1
			L621.7,292.1z M602.3,262.8v-1.6l0,0l0,0l0,0v-1c0.6-3.2-0.1-4.1,5.9-6.1c1.4-0.4,5.4-1.2,6.5-1.9l0,0c0-0.3-2.2-1.4-2.2-1.4
			c5.3,1.1,2.1,2.4-1.2,3.5c-10.8,3.6-6,4.8-8,7.8C603,262.6,602.7,262.8,602.3,262.8z M530,367.6c-0.3,3.5-0.9,12.5-4.9,14.8
			c-1.3,0.8-1.7-0.5-1.8-1.7v-2.8c1.5-0.6,1.2,1.8,1.3,3C527.6,378.2,529.2,370.9,530,367.6L530,367.6z M602.3,260.2v1.1l0,0l0,0
			v1.5c-2.7,0.3-5.7-12.8-5.7-12.8c0.4,0.9,3.8,9.8,5.6,11.2C602.3,260.8,602.3,260.5,602.3,260.2L602.3,260.2z M523.3,420v-1.3l0,0
			l0,0l0,0l0,0c0.6-0.4,0.4-1.9,0-3.8v-3.7c1.5,3.5,2.4,7.1,0.8,8.4C523.9,419.9,523.6,420,523.3,420L523.3,420z M523.3,331.3v-0.8
			c0.4-0.4,0.8-0.8,1.3-1.2c9.1-8.7,4.4,7,9.3,8.4c4.4,1.3,3.4-10.9,5.1-13.1c4.4-5.5,11.8,13.2,12.4,13.4l0,0l0,0
			c3-2.4-0.6-20.5-1.4-23.6c1.9,5.3,5.3,18.1,2.7,23.7c-1.8,3.8-3.7-2-5.8-6c-2.9-5.5-7-11-7.7-2.2c-0.1,2.2-1.5,11.2-6.2,8.8
			c-5.9-3.1,0.2-16.2-8.1-8.9C524.5,330.3,523.9,330.8,523.3,331.3L523.3,331.3z M546.8,260.2c0.5,1.3,6.6,21.5,0.7,18.9
			c-4.5-1.9-8.9-13.6-9.8-6.2c-0.8,6.3-1.3,14.3-7,18.3c-3.2,2.4-3.7-2.5-3.7-4.5c0.3,1.4,0.8,5.9,3.3,3.9c5.2-4.2,5.4-11.9,6-17.9
			c1-10,8.9,2.7,10.8,4.5C551.9,282.1,546.9,260.6,546.8,260.2z M523.3,380.8c-0.1-0.6,0-1.2,0-1.5c-1.2,0.9-7.7,7.4-6.6,2.5
			c0.7,2.2,0.9,1.6,3.4-1.2c1.5-1.6,2.5-2.5,3.2-2.7L523.3,380.8L523.3,380.8z M523.3,330.5v0.8c-2,1.7-3.5,2.1-3.2-2.2
			C520.6,332.8,521.1,332.7,523.3,330.5L523.3,330.5z M523.3,411.3v3.7c-1.1-4.4-4-11-4.5-12C519.6,404,521.8,407.6,523.3,411.3
			L523.3,411.3z M523.3,418.7c-4.4-2.2-7.2-16.4-12.7-7.5c-3.3,5.3-6.7,10.8-8.5,2.9c-0.4,12.6,11-4.1,11.1-4.1
			c2.7-2,7,10.3,10.1,10.1L523.3,418.7L523.3,418.7L523.3,418.7L523.3,418.7L523.3,418.7z M422.5,375.4v-1.5l0,0l0,0v-0.3
			c0.9-2.1,5.9-16,9.1-6.6c1.1,3.1,0.8,5.1,0.6,8.4c-3-21.9-6.7-2.5-8.7-0.6C423.1,375.2,422.8,375.4,422.5,375.4L422.5,375.4z
			 M422.5,318.6v-2c2.4-5.2,4.4-16,9.2-10.8c1.6,1.8,2.3,4.1,3.1,6.4c-5.1-10-6.9-9.3-10.3,1.8C423.9,316.1,423.2,317.6,422.5,318.6
			L422.5,318.6z M443.8,399.5c1.5,3,5.1,12.7,2.2,15.7c-3.3,3.6-5.8-10.5-9.1-7.7c-4.6,3.8-13,17-12.4,4.8c0.4,2.5,0.4,2.9,0.8,3.8
			c1.1,2.6,8.4-7.3,10.1-9.1c5.5-5.8,7.5,7.8,9.6,7.4C447.5,413.9,444.2,400.9,443.8,399.5L443.8,399.5z M453.6,341
			c-0.1,2-0.7,21.4,4.4,19.9c4.1-1.2,8.4-18.5,15.4,1c2.2,6,7.3,7.6,9.8,1.1c-0.6,6-7.6,7.4-10.8-0.7c-7.4-18.8-8.6,1.4-15.3,0
			C451,361,453,344.9,453.6,341z M422.5,316.7v2c-2.5,3.5-5.5,1.3-7.5-5c-1.6-5.2-0.3-21.4-9.4-9.7c0,0-6.5,11.9-7.7,6.3
			c-1.8-8.2,2.5-25.3,6-32.8c-1.6,4.6-7.6,29.5-4.6,33l0.1,0.1l0,0l0,0l0,0l0,0c1.4-0.3,9.9-18.5,14.7-10c1.7,3,1.1,17.9,6,18.7
			C421,319.3,421.7,318.2,422.5,316.7L422.5,316.7z M422.5,373.7v0.3l0,0l0,0v1.5c-3.7,0.6-3.2-19.6-3.2-20.2
			c0.3,2.4,1.4,17,3.1,18.6C422.4,373.8,422.4,373.7,422.5,373.7L422.5,373.7z M356.6,234.1c-0.7,1.1-8.2,13.9-6.5,14.8l0,0
			c1,0.1,23.9-16.1,17.2-5.7l0.4-1.4c1.6-6.3-14.2,9.3-17.9,8.5C344.5,249.1,355.7,235,356.6,234.1L356.6,234.1z M320.1,273.2
			c-0.4,2.2-3,13.4-2.5,15.8c4.5-3.2,8.4-18.8,11.1,0.5c-1.5-4.7-2-6.4-2-6.4c-2.2-6-3.8,3.5-8.1,7
			C312.7,294.7,320,273.5,320.1,273.2L320.1,273.2z M325.7,314.4c0.2,2,2,19,4.6,19.7c2.6-2.7-2.8-26.8,7.7-20.2
			c3.9,2.4,3.9,2.2,1.5-3.3l-2.7-5.7l3.4,5.3l1.7,3.9c1.4,4.5-5.3,0.1-5.6,0c-7-3.2-1.1,21.2-6,21.2
			C325.8,335.4,325.7,316.8,325.7,314.4z"/>
	</g>
	<g>
		<path fill="#FFFFFF" d="M363.3,329l-4.1,7.9c-1.2,2.3-0.4,5.2,2,6.5l9.1,4.8l8.6-16.4l-9.1-4.8C367.4,325.7,364.5,326.7,363.3,329
			z"/>
		<path fill="#FFFFFF" d="M371.8,331.8L371.8,331.8c-0.8,1.6-0.2,3.7,1.4,4.5l12.7,6.7c1.6,0.8,3.7,0.2,4.5-1.4l0,0
			c0.8-1.6,0.2-3.7-1.4-4.5l-12.7-6.7C374.7,329.5,372.6,330.2,371.8,331.8z"/>
		<path fill="#FFFFFF" d="M366.3,342.3L366.3,342.3c-0.8,1.6-0.2,3.7,1.4,4.5l12.7,6.7c1.6,0.8,3.7,0.2,4.5-1.4l0,0
			c0.8-1.6,0.2-3.7-1.4-4.5l-12.7-6.7C369.2,340,367.1,340.6,366.3,342.3z"/>
	</g>
	<path fill="#FFFFFF" d="M600,380.6l-6,3.4l-12-21.5l6-3.4C603,350.6,615,371.9,600,380.6z"/>
	<path fill="#FFFFFF" d="M584.3,382l-5.8-10.4c-1.7-3.1-0.6-7,2.5-8.7l4.4-2.4l12,21.6l-4.4,2.4C589.9,386.2,586,385.1,584.3,382z"
		/>
	<path fill="#6A8733" d="M592.4,368.1l-6.3,3.5c-4.2,2.4-7.7-3.3-3.2-5.8l6.3-3.5C592.8,360.3,596.7,365.7,592.4,368.1z"/>
	<path fill="#6A8733" d="M598.2,378.4l-6.3,3.5c-4.6,2.6-7.6-3.4-3.2-5.8l6.3-3.5C599.2,370.2,602.3,376.1,598.2,378.4z"/>
</g>
</svg>
